<?xml version="1.0" encoding="utf-8"?>
<svg viewBox="195.359 180.078 39.141 52.922" xmlns="http://www.w3.org/2000/svg">
  <path d="M 203.667 195.512 L 211.067 195.512 L 218.697 204.272 C 218.904 204.512 219.04 204.799 219.107 205.132 C 219.18 205.472 219.17 205.829 219.077 206.202 C 218.977 206.589 218.807 206.952 218.567 207.292 C 218.32 207.632 218.027 207.922 217.687 208.162 L 205.877 216.652 L 198.397 216.652 L 212.927 206.202 L 203.667 195.512 Z" transform="matrix(1, 0, 0, 1, 0, 0)" style="fill: rgba(250, 0, 108, 0.6); white-space: pre;"/>
  <path d="M 217.961 195.505 L 225.361 195.505 L 232.991 204.265 C 233.198 204.505 233.334 204.792 233.401 205.125 C 233.474 205.465 233.464 205.822 233.371 206.195 C 233.271 206.582 233.101 206.945 232.861 207.285 C 232.614 207.625 232.321 207.915 231.981 208.155 L 220.171 216.645 L 212.691 216.645 L 227.221 206.195 L 217.961 195.505 Z" transform="matrix(1, 0, 0, 1, 0, 0)" style="fill: rgba(250, 0, 108, 0.38); white-space: pre;"/>
</svg>