<?xml version="1.0" encoding="utf-8"?>
<svg viewBox="48.344 42.406 191.797 52.922" xmlns="http://www.w3.org/2000/svg">
  <path d="M 69.254 73.111 C 69.254 73.811 69.167 74.441 68.994 75.001 C 68.814 75.561 68.577 76.058 68.284 76.491 C 67.997 76.918 67.657 77.281 67.264 77.581 C 66.871 77.881 66.464 78.128 66.044 78.321 C 65.624 78.514 65.197 78.654 64.764 78.741 C 64.331 78.834 63.924 78.881 63.544 78.881 L 49.834 78.881 L 49.834 75.331 L 63.544 75.331 C 64.224 75.331 64.754 75.128 65.134 74.721 C 65.514 74.321 65.704 73.784 65.704 73.111 C 65.704 72.784 65.654 72.484 65.554 72.211 C 65.454 71.938 65.311 71.701 65.124 71.501 C 64.937 71.301 64.707 71.144 64.434 71.031 C 64.167 70.924 63.871 70.871 63.544 70.871 L 55.364 70.871 C 54.791 70.871 54.171 70.768 53.504 70.561 C 52.844 70.354 52.227 70.024 51.654 69.571 C 51.087 69.118 50.614 68.521 50.234 67.781 C 49.854 67.041 49.664 66.138 49.664 65.071 C 49.664 64.004 49.854 63.104 50.234 62.371 C 50.614 61.638 51.087 61.041 51.654 60.581 C 52.227 60.121 52.844 59.788 53.504 59.581 C 54.171 59.374 54.791 59.271 55.364 59.271 L 67.464 59.271 L 67.464 62.831 L 55.364 62.831 C 54.691 62.831 54.164 63.034 53.784 63.441 C 53.411 63.854 53.224 64.398 53.224 65.071 C 53.224 65.758 53.411 66.298 53.784 66.691 C 54.164 67.091 54.691 67.291 55.364 67.291 L 63.544 67.291 L 63.574 67.291 C 63.954 67.298 64.357 67.348 64.784 67.441 C 65.217 67.541 65.644 67.691 66.064 67.891 C 66.491 68.091 66.894 68.344 67.274 68.651 C 67.661 68.951 68.001 69.318 68.294 69.751 C 68.587 70.178 68.821 70.668 68.994 71.221 C 69.167 71.781 69.254 72.411 69.254 73.111 ZM 75.789 59.271 L 75.789 78.881 L 72.229 78.881 L 72.229 59.271 L 75.789 59.271 ZM 99.535 59.271 L 99.535 77.361 C 99.535 77.621 99.485 77.858 99.385 78.071 C 99.291 78.291 99.165 78.481 99.005 78.641 C 98.845 78.801 98.655 78.928 98.435 79.021 C 98.215 79.108 97.985 79.151 97.745 79.151 C 97.525 79.151 97.301 79.111 97.075 79.031 C 96.855 78.951 96.658 78.818 96.485 78.631 L 83.495 65.071 L 83.495 78.881 L 79.935 78.881 L 79.935 60.791 C 79.935 60.431 80.038 60.101 80.245 59.801 C 80.451 59.508 80.715 59.288 81.035 59.141 C 81.368 59.001 81.715 58.968 82.075 59.041 C 82.428 59.108 82.731 59.271 82.985 59.531 L 95.975 73.081 L 95.975 59.271 L 99.535 59.271 ZM 122.887 61.071 L 122.887 78.881 L 119.337 78.881 L 119.337 74.071 L 106.837 74.071 L 106.837 78.881 L 103.287 78.881 L 103.287 69.081 C 103.287 67.648 103.53 66.331 104.017 65.131 C 104.51 63.924 105.194 62.888 106.067 62.021 C 106.947 61.154 107.984 60.481 109.177 60.001 C 110.37 59.514 111.674 59.271 113.087 59.271 L 121.097 59.271 C 121.344 59.271 121.577 59.318 121.797 59.411 C 122.017 59.504 122.207 59.631 122.367 59.791 C 122.534 59.958 122.66 60.151 122.747 60.371 C 122.84 60.591 122.887 60.824 122.887 61.071 Z M 106.837 69.081 L 106.837 70.511 L 119.337 70.511 L 119.337 62.831 L 113.087 62.831 C 112.974 62.831 112.744 62.848 112.397 62.881 C 112.044 62.908 111.637 62.988 111.177 63.121 C 110.717 63.248 110.23 63.441 109.717 63.701 C 109.21 63.968 108.744 64.334 108.317 64.801 C 107.884 65.268 107.53 65.848 107.257 66.541 C 106.977 67.241 106.837 68.088 106.837 69.081 ZM 146.544 65.861 L 146.544 67.481 C 146.544 68.288 146.444 69.011 146.244 69.651 C 146.044 70.291 145.774 70.854 145.434 71.341 C 145.087 71.828 144.691 72.244 144.244 72.591 C 143.797 72.938 143.331 73.221 142.844 73.441 C 142.357 73.661 141.867 73.821 141.374 73.921 C 140.874 74.021 140.407 74.071 139.974 74.071 L 131.934 74.071 L 131.934 70.511 L 139.974 70.511 C 140.427 70.478 140.837 70.384 141.204 70.231 C 141.577 70.084 141.894 69.881 142.154 69.621 C 142.421 69.368 142.627 69.061 142.774 68.701 C 142.921 68.341 142.994 67.934 142.994 67.481 L 142.994 65.861 C 142.947 65.414 142.851 65.004 142.704 64.631 C 142.557 64.258 142.361 63.941 142.114 63.681 C 141.861 63.414 141.557 63.204 141.204 63.051 C 140.844 62.904 140.434 62.831 139.974 62.831 L 131.954 62.831 C 131.481 62.831 131.121 62.954 130.874 63.201 C 130.627 63.448 130.504 63.801 130.504 64.261 L 130.504 78.881 L 126.954 78.881 L 126.954 64.261 C 126.954 63.354 127.121 62.581 127.454 61.941 C 127.787 61.301 128.201 60.788 128.694 60.401 C 129.194 60.008 129.734 59.721 130.314 59.541 C 130.901 59.361 131.441 59.271 131.934 59.271 L 139.974 59.271 C 140.774 59.271 141.494 59.374 142.134 59.581 C 142.767 59.788 143.327 60.061 143.814 60.401 C 144.307 60.748 144.724 61.144 145.064 61.591 C 145.404 62.031 145.687 62.498 145.914 62.991 C 146.134 63.478 146.294 63.968 146.394 64.461 C 146.494 64.961 146.544 65.428 146.544 65.861 ZM 168.408 73.111 C 168.408 73.811 168.322 74.441 168.148 75.001 C 167.968 75.561 167.732 76.058 167.438 76.491 C 167.152 76.918 166.812 77.281 166.418 77.581 C 166.025 77.881 165.618 78.128 165.198 78.321 C 164.778 78.514 164.352 78.654 163.918 78.741 C 163.485 78.834 163.078 78.881 162.698 78.881 L 148.988 78.881 L 148.988 75.331 L 162.698 75.331 C 163.378 75.331 163.908 75.128 164.288 74.721 C 164.668 74.321 164.858 73.784 164.858 73.111 C 164.858 72.784 164.808 72.484 164.708 72.211 C 164.608 71.938 164.465 71.701 164.278 71.501 C 164.092 71.301 163.862 71.144 163.588 71.031 C 163.322 70.924 163.025 70.871 162.698 70.871 L 154.518 70.871 C 153.945 70.871 153.325 70.768 152.658 70.561 C 151.998 70.354 151.382 70.024 150.808 69.571 C 150.242 69.118 149.768 68.521 149.388 67.781 C 149.008 67.041 148.818 66.138 148.818 65.071 C 148.818 64.004 149.008 63.104 149.388 62.371 C 149.768 61.638 150.242 61.041 150.808 60.581 C 151.382 60.121 151.998 59.788 152.658 59.581 C 153.325 59.374 153.945 59.271 154.518 59.271 L 166.618 59.271 L 166.618 62.831 L 154.518 62.831 C 153.845 62.831 153.318 63.034 152.938 63.441 C 152.565 63.854 152.378 64.398 152.378 65.071 C 152.378 65.758 152.565 66.298 152.938 66.691 C 153.318 67.091 153.845 67.291 154.518 67.291 L 162.698 67.291 L 162.728 67.291 C 163.108 67.298 163.512 67.348 163.938 67.441 C 164.372 67.541 164.798 67.691 165.218 67.891 C 165.645 68.091 166.048 68.344 166.428 68.651 C 166.815 68.951 167.155 69.318 167.448 69.751 C 167.742 70.178 167.975 70.668 168.148 71.221 C 168.322 71.781 168.408 72.411 168.408 73.111 ZM 174.943 59.271 L 174.943 78.881 L 171.383 78.881 L 171.383 59.271 L 174.943 59.271 ZM 197.929 73.111 C 197.929 73.811 197.842 74.441 197.669 75.001 C 197.489 75.561 197.252 76.058 196.959 76.491 C 196.672 76.918 196.332 77.281 195.939 77.581 C 195.546 77.881 195.139 78.128 194.719 78.321 C 194.299 78.514 193.872 78.654 193.439 78.741 C 193.006 78.834 192.599 78.881 192.219 78.881 L 178.509 78.881 L 178.509 75.331 L 192.219 75.331 C 192.899 75.331 193.429 75.128 193.809 74.721 C 194.189 74.321 194.379 73.784 194.379 73.111 C 194.379 72.784 194.329 72.484 194.229 72.211 C 194.129 71.938 193.986 71.701 193.799 71.501 C 193.612 71.301 193.382 71.144 193.109 71.031 C 192.842 70.924 192.546 70.871 192.219 70.871 L 184.039 70.871 C 183.466 70.871 182.846 70.768 182.179 70.561 C 181.519 70.354 180.902 70.024 180.329 69.571 C 179.762 69.118 179.289 68.521 178.909 67.781 C 178.529 67.041 178.339 66.138 178.339 65.071 C 178.339 64.004 178.529 63.104 178.909 62.371 C 179.289 61.638 179.762 61.041 180.329 60.581 C 180.902 60.121 181.519 59.788 182.179 59.581 C 182.846 59.374 183.466 59.271 184.039 59.271 L 196.139 59.271 L 196.139 62.831 L 184.039 62.831 C 183.366 62.831 182.839 63.034 182.459 63.441 C 182.086 63.854 181.899 64.398 181.899 65.071 C 181.899 65.758 182.086 66.298 182.459 66.691 C 182.839 67.091 183.366 67.291 184.039 67.291 L 192.219 67.291 L 192.249 67.291 C 192.629 67.298 193.032 67.348 193.459 67.441 C 193.892 67.541 194.319 67.691 194.739 67.891 C 195.166 68.091 195.569 68.344 195.949 68.651 C 196.336 68.951 196.676 69.318 196.969 69.751 C 197.262 70.178 197.496 70.668 197.669 71.221 C 197.842 71.781 197.929 72.411 197.929 73.111 Z" transform="matrix(1, 0, 0, 1, 0, 0)" style="fill: rgb(164, 172, 193); white-space: pre;"/>
  <path d="M 209.316 57.826 L 216.716 57.826 L 224.346 66.586 C 224.553 66.826 224.689 67.113 224.756 67.446 C 224.829 67.786 224.819 68.143 224.726 68.516 C 224.626 68.903 224.456 69.266 224.216 69.606 C 223.969 69.946 223.676 70.236 223.336 70.476 L 211.526 78.966 L 204.046 78.966 L 218.576 68.516 L 209.316 57.826 Z" transform="matrix(1, 0, 0, 1, 0, 0)" style="fill: rgba(164, 172, 193, 0.62); white-space: pre;"/>
  <path d="M 223.949 57.795 L 231.349 57.795 L 238.979 66.555 C 239.186 66.795 239.322 67.082 239.389 67.415 C 239.462 67.755 239.452 68.112 239.359 68.485 C 239.259 68.872 239.089 69.235 238.849 69.575 C 238.602 69.915 238.309 70.205 237.969 70.445 L 226.159 78.935 L 218.679 78.935 L 233.209 68.485 L 223.949 57.795 Z" transform="matrix(1, 0, 0, 1, 0, 0)" style="fill: rgba(164, 172, 193, 0.38); white-space: pre;"/>
</svg>