<?xml version="1.0" encoding="utf-8"?>
<svg viewBox="45.828 110.453 191.813 52.922" xmlns="http://www.w3.org/2000/svg">
  <path d="M 66.742 141.158 C 66.742 141.858 66.655 142.488 66.482 143.048 C 66.302 143.608 66.065 144.105 65.772 144.538 C 65.485 144.965 65.145 145.328 64.752 145.628 C 64.359 145.928 63.952 146.175 63.532 146.368 C 63.112 146.561 62.685 146.701 62.252 146.788 C 61.819 146.881 61.412 146.928 61.032 146.928 L 47.322 146.928 L 47.322 143.378 L 61.032 143.378 C 61.712 143.378 62.242 143.175 62.622 142.768 C 63.002 142.368 63.192 141.831 63.192 141.158 C 63.192 140.831 63.142 140.531 63.042 140.258 C 62.942 139.985 62.799 139.748 62.612 139.548 C 62.425 139.348 62.195 139.191 61.922 139.078 C 61.655 138.971 61.359 138.918 61.032 138.918 L 52.852 138.918 C 52.279 138.918 51.659 138.815 50.992 138.608 C 50.332 138.401 49.715 138.071 49.142 137.618 C 48.575 137.165 48.102 136.568 47.722 135.828 C 47.342 135.088 47.152 134.185 47.152 133.118 C 47.152 132.051 47.342 131.151 47.722 130.418 C 48.102 129.685 48.575 129.088 49.142 128.628 C 49.715 128.168 50.332 127.835 50.992 127.628 C 51.659 127.421 52.279 127.318 52.852 127.318 L 64.952 127.318 L 64.952 130.878 L 52.852 130.878 C 52.179 130.878 51.652 131.081 51.272 131.488 C 50.899 131.901 50.712 132.445 50.712 133.118 C 50.712 133.805 50.899 134.345 51.272 134.738 C 51.652 135.138 52.179 135.338 52.852 135.338 L 61.032 135.338 L 61.062 135.338 C 61.442 135.345 61.845 135.395 62.272 135.488 C 62.705 135.588 63.132 135.738 63.552 135.938 C 63.979 136.138 64.382 136.391 64.762 136.698 C 65.149 136.998 65.489 137.365 65.782 137.798 C 66.075 138.225 66.309 138.715 66.482 139.268 C 66.655 139.828 66.742 140.458 66.742 141.158 ZM 73.277 127.318 L 73.277 146.928 L 69.717 146.928 L 69.717 127.318 L 73.277 127.318 ZM 97.023 127.318 L 97.023 145.408 C 97.023 145.668 96.973 145.905 96.873 146.118 C 96.779 146.338 96.653 146.528 96.493 146.688 C 96.333 146.848 96.143 146.975 95.923 147.068 C 95.703 147.155 95.473 147.198 95.233 147.198 C 95.013 147.198 94.789 147.158 94.563 147.078 C 94.343 146.998 94.146 146.865 93.973 146.678 L 80.983 133.118 L 80.983 146.928 L 77.423 146.928 L 77.423 128.838 C 77.423 128.478 77.526 128.148 77.733 127.848 C 77.939 127.555 78.203 127.335 78.523 127.188 C 78.856 127.048 79.203 127.015 79.563 127.088 C 79.916 127.155 80.219 127.318 80.473 127.578 L 93.463 141.128 L 93.463 127.318 L 97.023 127.318 ZM 120.375 129.118 L 120.375 146.928 L 116.825 146.928 L 116.825 142.118 L 104.325 142.118 L 104.325 146.928 L 100.775 146.928 L 100.775 137.128 C 100.775 135.695 101.018 134.378 101.505 133.178 C 101.998 131.971 102.682 130.935 103.555 130.068 C 104.435 129.201 105.472 128.528 106.665 128.048 C 107.858 127.561 109.162 127.318 110.575 127.318 L 118.585 127.318 C 118.832 127.318 119.065 127.365 119.285 127.458 C 119.505 127.551 119.695 127.678 119.855 127.838 C 120.022 128.005 120.148 128.198 120.235 128.418 C 120.328 128.638 120.375 128.871 120.375 129.118 Z M 104.325 137.128 L 104.325 138.558 L 116.825 138.558 L 116.825 130.878 L 110.575 130.878 C 110.462 130.878 110.232 130.895 109.885 130.928 C 109.532 130.955 109.125 131.035 108.665 131.168 C 108.205 131.295 107.718 131.488 107.205 131.748 C 106.698 132.015 106.232 132.381 105.805 132.848 C 105.372 133.315 105.018 133.895 104.745 134.588 C 104.465 135.288 104.325 136.135 104.325 137.128 ZM 144.032 133.908 L 144.032 135.528 C 144.032 136.335 143.932 137.058 143.732 137.698 C 143.532 138.338 143.262 138.901 142.922 139.388 C 142.575 139.875 142.179 140.291 141.732 140.638 C 141.285 140.985 140.819 141.268 140.332 141.488 C 139.845 141.708 139.355 141.868 138.862 141.968 C 138.362 142.068 137.895 142.118 137.462 142.118 L 129.422 142.118 L 129.422 138.558 L 137.462 138.558 C 137.915 138.525 138.325 138.431 138.692 138.278 C 139.065 138.131 139.382 137.928 139.642 137.668 C 139.909 137.415 140.115 137.108 140.262 136.748 C 140.409 136.388 140.482 135.981 140.482 135.528 L 140.482 133.908 C 140.435 133.461 140.339 133.051 140.192 132.678 C 140.045 132.305 139.849 131.988 139.602 131.728 C 139.349 131.461 139.045 131.251 138.692 131.098 C 138.332 130.951 137.922 130.878 137.462 130.878 L 129.442 130.878 C 128.969 130.878 128.609 131.001 128.362 131.248 C 128.115 131.495 127.992 131.848 127.992 132.308 L 127.992 146.928 L 124.442 146.928 L 124.442 132.308 C 124.442 131.401 124.609 130.628 124.942 129.988 C 125.275 129.348 125.689 128.835 126.182 128.448 C 126.682 128.055 127.222 127.768 127.802 127.588 C 128.389 127.408 128.929 127.318 129.422 127.318 L 137.462 127.318 C 138.262 127.318 138.982 127.421 139.622 127.628 C 140.255 127.835 140.815 128.108 141.302 128.448 C 141.795 128.795 142.212 129.191 142.552 129.638 C 142.892 130.078 143.175 130.545 143.402 131.038 C 143.622 131.525 143.782 132.015 143.882 132.508 C 143.982 133.008 144.032 133.475 144.032 133.908 ZM 165.896 141.158 C 165.896 141.858 165.81 142.488 165.636 143.048 C 165.456 143.608 165.22 144.105 164.926 144.538 C 164.64 144.965 164.3 145.328 163.906 145.628 C 163.513 145.928 163.106 146.175 162.686 146.368 C 162.266 146.561 161.84 146.701 161.406 146.788 C 160.973 146.881 160.566 146.928 160.186 146.928 L 146.476 146.928 L 146.476 143.378 L 160.186 143.378 C 160.866 143.378 161.396 143.175 161.776 142.768 C 162.156 142.368 162.346 141.831 162.346 141.158 C 162.346 140.831 162.296 140.531 162.196 140.258 C 162.096 139.985 161.953 139.748 161.766 139.548 C 161.58 139.348 161.35 139.191 161.076 139.078 C 160.81 138.971 160.513 138.918 160.186 138.918 L 152.006 138.918 C 151.433 138.918 150.813 138.815 150.146 138.608 C 149.486 138.401 148.87 138.071 148.296 137.618 C 147.73 137.165 147.256 136.568 146.876 135.828 C 146.496 135.088 146.306 134.185 146.306 133.118 C 146.306 132.051 146.496 131.151 146.876 130.418 C 147.256 129.685 147.73 129.088 148.296 128.628 C 148.87 128.168 149.486 127.835 150.146 127.628 C 150.813 127.421 151.433 127.318 152.006 127.318 L 164.106 127.318 L 164.106 130.878 L 152.006 130.878 C 151.333 130.878 150.806 131.081 150.426 131.488 C 150.053 131.901 149.866 132.445 149.866 133.118 C 149.866 133.805 150.053 134.345 150.426 134.738 C 150.806 135.138 151.333 135.338 152.006 135.338 L 160.186 135.338 L 160.216 135.338 C 160.596 135.345 161 135.395 161.426 135.488 C 161.86 135.588 162.286 135.738 162.706 135.938 C 163.133 136.138 163.536 136.391 163.916 136.698 C 164.303 136.998 164.643 137.365 164.936 137.798 C 165.23 138.225 165.463 138.715 165.636 139.268 C 165.81 139.828 165.896 140.458 165.896 141.158 ZM 172.431 127.318 L 172.431 146.928 L 168.871 146.928 L 168.871 127.318 L 172.431 127.318 ZM 195.417 141.158 C 195.417 141.858 195.33 142.488 195.157 143.048 C 194.977 143.608 194.74 144.105 194.447 144.538 C 194.16 144.965 193.82 145.328 193.427 145.628 C 193.034 145.928 192.627 146.175 192.207 146.368 C 191.787 146.561 191.36 146.701 190.927 146.788 C 190.494 146.881 190.087 146.928 189.707 146.928 L 175.997 146.928 L 175.997 143.378 L 189.707 143.378 C 190.387 143.378 190.917 143.175 191.297 142.768 C 191.677 142.368 191.867 141.831 191.867 141.158 C 191.867 140.831 191.817 140.531 191.717 140.258 C 191.617 139.985 191.474 139.748 191.287 139.548 C 191.1 139.348 190.87 139.191 190.597 139.078 C 190.33 138.971 190.034 138.918 189.707 138.918 L 181.527 138.918 C 180.954 138.918 180.334 138.815 179.667 138.608 C 179.007 138.401 178.39 138.071 177.817 137.618 C 177.25 137.165 176.777 136.568 176.397 135.828 C 176.017 135.088 175.827 134.185 175.827 133.118 C 175.827 132.051 176.017 131.151 176.397 130.418 C 176.777 129.685 177.25 129.088 177.817 128.628 C 178.39 128.168 179.007 127.835 179.667 127.628 C 180.334 127.421 180.954 127.318 181.527 127.318 L 193.627 127.318 L 193.627 130.878 L 181.527 130.878 C 180.854 130.878 180.327 131.081 179.947 131.488 C 179.574 131.901 179.387 132.445 179.387 133.118 C 179.387 133.805 179.574 134.345 179.947 134.738 C 180.327 135.138 180.854 135.338 181.527 135.338 L 189.707 135.338 L 189.737 135.338 C 190.117 135.345 190.52 135.395 190.947 135.488 C 191.38 135.588 191.807 135.738 192.227 135.938 C 192.654 136.138 193.057 136.391 193.437 136.698 C 193.824 136.998 194.164 137.365 194.457 137.798 C 194.75 138.225 194.984 138.715 195.157 139.268 C 195.33 139.828 195.417 140.458 195.417 141.158 Z" transform="matrix(1, 0, 0, 1, 0, 0)" style="fill: rgb(93, 93, 93); white-space: pre;"/>
  <path d="M 206.804 125.873 L 214.204 125.873 L 221.834 134.633 C 222.041 134.873 222.177 135.16 222.244 135.493 C 222.317 135.833 222.307 136.19 222.214 136.563 C 222.114 136.95 221.944 137.313 221.704 137.653 C 221.457 137.993 221.164 138.283 220.824 138.523 L 209.014 147.013 L 201.534 147.013 L 216.064 136.563 L 206.804 125.873 Z" transform="matrix(1, 0, 0, 1, 0, 0)" style="fill: rgba(250, 0, 108, 0.6); white-space: pre;"/>
  <path d="M 221.382 125.828 L 228.782 125.828 L 236.412 134.588 C 236.619 134.828 236.755 135.115 236.822 135.448 C 236.895 135.788 236.885 136.145 236.792 136.518 C 236.692 136.905 236.522 137.268 236.282 137.608 C 236.035 137.948 235.742 138.238 235.402 138.478 L 223.592 146.968 L 216.112 146.968 L 230.642 136.518 L 221.382 125.828 Z" transform="matrix(1, 0, 0, 1, 0, 0)" style="fill: rgba(250, 0, 108, 0.38); white-space: pre;"/>
</svg>