<?xml version="1.0" encoding="utf-8"?>
<svg viewBox="42.703 180.078 191.797 52.922" xmlns="http://www.w3.org/2000/svg">
  <path d="M 63.605 210.797 C 63.605 211.497 63.518 212.127 63.345 212.687 C 63.165 213.247 62.928 213.744 62.635 214.177 C 62.348 214.604 62.008 214.967 61.615 215.267 C 61.222 215.567 60.815 215.814 60.395 216.007 C 59.975 216.2 59.548 216.34 59.115 216.427 C 58.682 216.52 58.275 216.567 57.895 216.567 L 44.185 216.567 L 44.185 213.017 L 57.895 213.017 C 58.575 213.017 59.105 212.814 59.485 212.407 C 59.865 212.007 60.055 211.47 60.055 210.797 C 60.055 210.47 60.005 210.17 59.905 209.897 C 59.805 209.624 59.662 209.387 59.475 209.187 C 59.288 208.987 59.058 208.83 58.785 208.717 C 58.518 208.61 58.222 208.557 57.895 208.557 L 49.715 208.557 C 49.142 208.557 48.522 208.454 47.855 208.247 C 47.195 208.04 46.578 207.71 46.005 207.257 C 45.438 206.804 44.965 206.207 44.585 205.467 C 44.205 204.727 44.015 203.824 44.015 202.757 C 44.015 201.69 44.205 200.79 44.585 200.057 C 44.965 199.324 45.438 198.727 46.005 198.267 C 46.578 197.807 47.195 197.474 47.855 197.267 C 48.522 197.06 49.142 196.957 49.715 196.957 L 61.815 196.957 L 61.815 200.517 L 49.715 200.517 C 49.042 200.517 48.515 200.72 48.135 201.127 C 47.762 201.54 47.575 202.084 47.575 202.757 C 47.575 203.444 47.762 203.984 48.135 204.377 C 48.515 204.777 49.042 204.977 49.715 204.977 L 57.895 204.977 L 57.925 204.977 C 58.305 204.984 58.708 205.034 59.135 205.127 C 59.568 205.227 59.995 205.377 60.415 205.577 C 60.842 205.777 61.245 206.03 61.625 206.337 C 62.012 206.637 62.352 207.004 62.645 207.437 C 62.938 207.864 63.172 208.354 63.345 208.907 C 63.518 209.467 63.605 210.097 63.605 210.797 ZM 70.14 196.957 L 70.14 216.567 L 66.58 216.567 L 66.58 196.957 L 70.14 196.957 ZM 93.886 196.957 L 93.886 215.047 C 93.886 215.307 93.836 215.544 93.736 215.757 C 93.642 215.977 93.516 216.167 93.356 216.327 C 93.196 216.487 93.006 216.614 92.786 216.707 C 92.566 216.794 92.336 216.837 92.096 216.837 C 91.876 216.837 91.652 216.797 91.426 216.717 C 91.206 216.637 91.009 216.504 90.836 216.317 L 77.846 202.757 L 77.846 216.567 L 74.286 216.567 L 74.286 198.477 C 74.286 198.117 74.389 197.787 74.596 197.487 C 74.802 197.194 75.066 196.974 75.386 196.827 C 75.719 196.687 76.066 196.654 76.426 196.727 C 76.779 196.794 77.082 196.957 77.336 197.217 L 90.326 210.767 L 90.326 196.957 L 93.886 196.957 ZM 117.238 198.757 L 117.238 216.567 L 113.688 216.567 L 113.688 211.757 L 101.188 211.757 L 101.188 216.567 L 97.638 216.567 L 97.638 206.767 C 97.638 205.334 97.881 204.017 98.368 202.817 C 98.861 201.61 99.545 200.574 100.418 199.707 C 101.298 198.84 102.335 198.167 103.528 197.687 C 104.721 197.2 106.025 196.957 107.438 196.957 L 115.448 196.957 C 115.695 196.957 115.928 197.004 116.148 197.097 C 116.368 197.19 116.558 197.317 116.718 197.477 C 116.885 197.644 117.011 197.837 117.098 198.057 C 117.191 198.277 117.238 198.51 117.238 198.757 Z M 101.188 206.767 L 101.188 208.197 L 113.688 208.197 L 113.688 200.517 L 107.438 200.517 C 107.325 200.517 107.095 200.534 106.748 200.567 C 106.395 200.594 105.988 200.674 105.528 200.807 C 105.068 200.934 104.581 201.127 104.068 201.387 C 103.561 201.654 103.095 202.02 102.668 202.487 C 102.235 202.954 101.881 203.534 101.608 204.227 C 101.328 204.927 101.188 205.774 101.188 206.767 ZM 140.895 203.547 L 140.895 205.167 C 140.895 205.974 140.795 206.697 140.595 207.337 C 140.395 207.977 140.125 208.54 139.785 209.027 C 139.438 209.514 139.042 209.93 138.595 210.277 C 138.148 210.624 137.682 210.907 137.195 211.127 C 136.708 211.347 136.218 211.507 135.725 211.607 C 135.225 211.707 134.758 211.757 134.325 211.757 L 126.285 211.757 L 126.285 208.197 L 134.325 208.197 C 134.778 208.164 135.188 208.07 135.555 207.917 C 135.928 207.77 136.245 207.567 136.505 207.307 C 136.772 207.054 136.978 206.747 137.125 206.387 C 137.272 206.027 137.345 205.62 137.345 205.167 L 137.345 203.547 C 137.298 203.1 137.202 202.69 137.055 202.317 C 136.908 201.944 136.712 201.627 136.465 201.367 C 136.212 201.1 135.908 200.89 135.555 200.737 C 135.195 200.59 134.785 200.517 134.325 200.517 L 126.305 200.517 C 125.832 200.517 125.472 200.64 125.225 200.887 C 124.978 201.134 124.855 201.487 124.855 201.947 L 124.855 216.567 L 121.305 216.567 L 121.305 201.947 C 121.305 201.04 121.472 200.267 121.805 199.627 C 122.138 198.987 122.552 198.474 123.045 198.087 C 123.545 197.694 124.085 197.407 124.665 197.227 C 125.252 197.047 125.792 196.957 126.285 196.957 L 134.325 196.957 C 135.125 196.957 135.845 197.06 136.485 197.267 C 137.118 197.474 137.678 197.747 138.165 198.087 C 138.658 198.434 139.075 198.83 139.415 199.277 C 139.755 199.717 140.038 200.184 140.265 200.677 C 140.485 201.164 140.645 201.654 140.745 202.147 C 140.845 202.647 140.895 203.114 140.895 203.547 ZM 162.759 210.797 C 162.759 211.497 162.673 212.127 162.499 212.687 C 162.319 213.247 162.083 213.744 161.789 214.177 C 161.503 214.604 161.163 214.967 160.769 215.267 C 160.376 215.567 159.969 215.814 159.549 216.007 C 159.129 216.2 158.703 216.34 158.269 216.427 C 157.836 216.52 157.429 216.567 157.049 216.567 L 143.339 216.567 L 143.339 213.017 L 157.049 213.017 C 157.729 213.017 158.259 212.814 158.639 212.407 C 159.019 212.007 159.209 211.47 159.209 210.797 C 159.209 210.47 159.159 210.17 159.059 209.897 C 158.959 209.624 158.816 209.387 158.629 209.187 C 158.443 208.987 158.213 208.83 157.939 208.717 C 157.673 208.61 157.376 208.557 157.049 208.557 L 148.869 208.557 C 148.296 208.557 147.676 208.454 147.009 208.247 C 146.349 208.04 145.733 207.71 145.159 207.257 C 144.593 206.804 144.119 206.207 143.739 205.467 C 143.359 204.727 143.169 203.824 143.169 202.757 C 143.169 201.69 143.359 200.79 143.739 200.057 C 144.119 199.324 144.593 198.727 145.159 198.267 C 145.733 197.807 146.349 197.474 147.009 197.267 C 147.676 197.06 148.296 196.957 148.869 196.957 L 160.969 196.957 L 160.969 200.517 L 148.869 200.517 C 148.196 200.517 147.669 200.72 147.289 201.127 C 146.916 201.54 146.729 202.084 146.729 202.757 C 146.729 203.444 146.916 203.984 147.289 204.377 C 147.669 204.777 148.196 204.977 148.869 204.977 L 157.049 204.977 L 157.079 204.977 C 157.459 204.984 157.863 205.034 158.289 205.127 C 158.723 205.227 159.149 205.377 159.569 205.577 C 159.996 205.777 160.399 206.03 160.779 206.337 C 161.166 206.637 161.506 207.004 161.799 207.437 C 162.093 207.864 162.326 208.354 162.499 208.907 C 162.673 209.467 162.759 210.097 162.759 210.797 ZM 169.294 196.957 L 169.294 216.567 L 165.734 216.567 L 165.734 196.957 L 169.294 196.957 ZM 192.28 210.797 C 192.28 211.497 192.193 212.127 192.02 212.687 C 191.84 213.247 191.603 213.744 191.31 214.177 C 191.023 214.604 190.683 214.967 190.29 215.267 C 189.897 215.567 189.49 215.814 189.07 216.007 C 188.65 216.2 188.223 216.34 187.79 216.427 C 187.357 216.52 186.95 216.567 186.57 216.567 L 172.86 216.567 L 172.86 213.017 L 186.57 213.017 C 187.25 213.017 187.78 212.814 188.16 212.407 C 188.54 212.007 188.73 211.47 188.73 210.797 C 188.73 210.47 188.68 210.17 188.58 209.897 C 188.48 209.624 188.337 209.387 188.15 209.187 C 187.963 208.987 187.733 208.83 187.46 208.717 C 187.193 208.61 186.897 208.557 186.57 208.557 L 178.39 208.557 C 177.817 208.557 177.197 208.454 176.53 208.247 C 175.87 208.04 175.253 207.71 174.68 207.257 C 174.113 206.804 173.64 206.207 173.26 205.467 C 172.88 204.727 172.69 203.824 172.69 202.757 C 172.69 201.69 172.88 200.79 173.26 200.057 C 173.64 199.324 174.113 198.727 174.68 198.267 C 175.253 197.807 175.87 197.474 176.53 197.267 C 177.197 197.06 177.817 196.957 178.39 196.957 L 190.49 196.957 L 190.49 200.517 L 178.39 200.517 C 177.717 200.517 177.19 200.72 176.81 201.127 C 176.437 201.54 176.25 202.084 176.25 202.757 C 176.25 203.444 176.437 203.984 176.81 204.377 C 177.19 204.777 177.717 204.977 178.39 204.977 L 186.57 204.977 L 186.6 204.977 C 186.98 204.984 187.383 205.034 187.81 205.127 C 188.243 205.227 188.67 205.377 189.09 205.577 C 189.517 205.777 189.92 206.03 190.3 206.337 C 190.687 206.637 191.027 207.004 191.32 207.437 C 191.613 207.864 191.847 208.354 192.02 208.907 C 192.193 209.467 192.28 210.097 192.28 210.797 Z" transform="matrix(1, 0, 0, 1, 0, 0)" style="fill: rgb(252, 252, 252); white-space: pre;"/>
  <path d="M 203.667 195.512 L 211.067 195.512 L 218.697 204.272 C 218.904 204.512 219.04 204.799 219.107 205.132 C 219.18 205.472 219.17 205.829 219.077 206.202 C 218.977 206.589 218.807 206.952 218.567 207.292 C 218.32 207.632 218.027 207.922 217.687 208.162 L 205.877 216.652 L 198.397 216.652 L 212.927 206.202 L 203.667 195.512 Z" transform="matrix(1, 0, 0, 1, 0, 0)" style="fill: rgba(250, 0, 108, 0.6); white-space: pre;"/>
  <path d="M 218.278 195.577 L 225.678 195.577 L 233.308 204.337 C 233.515 204.577 233.651 204.864 233.718 205.197 C 233.791 205.537 233.781 205.894 233.688 206.267 C 233.588 206.654 233.418 207.017 233.178 207.357 C 232.931 207.697 232.638 207.987 232.298 208.227 L 220.488 216.717 L 213.008 216.717 L 227.538 206.267 L 218.278 195.577 Z" transform="matrix(1, 0, 0, 1, 0, 0)" style="fill: rgba(250, 0, 108, 0.38); white-space: pre;"/>
</svg>