<svg xmlns="http://www.w3.org/2000/svg" viewBox="0 0 1280 720" width="1280" height="720">
	<style>
		tspan { white-space:pre }
	</style>
	<path id="SINAPSIS /&gt; " fill="#333333" d="M260.35 324L270.7 313.65L270.7 271.5L260.35 261L197.5 261L197.5 240L249.85 240L249.85 250.5L270.7 250.5L270.7 229.65L260.35 219L186.85 219L176.5 229.65L176.5 274.65L186.85 282.15L249.85 282.15L249.85 303L197.5 303L197.5 292.65L176.5 292.65L176.5 313.65L186.85 324ZM306.7 324L306.7 219L285.7 219L285.7 324ZM415.9 324L415.9 219L395.05 219L395.05 288.9L342.7 219L321.7 219L321.7 324L342.7 324L342.7 253.95L395.05 324ZM450.4 271.65L450.4 261.15L471.25 240L502.75 240L502.75 271.65ZM450.4 324L450.4 292.65L502.75 292.65L502.75 324L523.6 324L523.6 219L460.75 219L429.4 250.65L429.4 324ZM559.6 271.65L559.6 240L611.95 240L611.95 271.65ZM559.6 324L559.6 292.65L622.45 292.65L632.8 282.15L632.8 229.65L622.45 219L538.6 219L538.6 324ZM730.15 324L740.5 313.65L740.5 271.5L730.15 261L667.3 261L667.3 240L719.65 240L719.65 250.5L740.5 250.5L740.5 229.65L730.15 219L656.65 219L646.3 229.65L646.3 274.65L656.65 282.15L719.65 282.15L719.65 303L667.3 303L667.3 292.65L646.3 292.65L646.3 313.65L656.65 324ZM776.5 324L776.5 219L755.5 219L755.5 324ZM875.35 324L885.7 313.65L885.7 271.5L875.35 261L812.5 261L812.5 240L864.85 240L864.85 250.5L885.7 250.5L885.7 229.65L875.35 219L801.85 219L791.5 229.65L791.5 274.65L801.85 282.15L864.85 282.15L864.85 303L812.5 303L812.5 292.65L791.5 292.65L791.5 313.65L801.85 324Z" />
	<path id="SINAPSIS /&gt; " fill="#000000" d="" />
	<path id="SINAPSIS /&gt; " fill="#ff0052" d="M978.55 324L1037.05 219L1012.15 219L953.2 324ZM1128.4 271.65L1044.55 219.15L1044.55 245.4L1086.4 271.65L1044.55 297.9L1044.55 324Z" />
</svg>